<svg width="797" height="204" viewBox="0 0 797 204" fill="none" xmlns="http://www.w3.org/2000/svg">
<path d="M577.383 43.3545H675.058V141.624C674.559 141.624 651.518 141.66 651.518 141.66C651.518 141.66 651.521 157.409 651.521 165.14H577.614V141.736H556.192C556.232 134.86 556.11 91.738 556.514 91.3339H577.382V43.3545H577.383ZM602.811 68.4999V139.917H626.462V91.3103C634.185 91.3103 641.788 91.3103 649.392 91.3051C649.504 91.3051 649.627 91.2547 649.723 91.193C649.828 91.1262 649.906 91.0182 649.867 91.0573V68.4999H602.81H602.811Z" fill="#4C31FF"/>
<path d="M14.4778 109.333V104.662C15.5419 104.662 16.3561 104.685 17.485 104.685V99.0803H21.4452C21.4452 97.7437 21.4545 96.552 21.4545 95.2349H25.0683V88.3573C26.2105 88.3573 27.0608 88.3687 28.1649 88.3687V84.4718H31.1269V78.4785C32.484 78.4785 33.6632 78.4847 34.9854 78.4847V70.7496C35.5961 70.7496 35.5046 70.7476 36.1975 70.7476H38.8901V63.9759H41.7627V56.8773C43.7541 56.8773 43.3079 56.8783 45.6222 56.8783V43.4646C46.7099 43.4646 47.6424 43.4646 48.7157 43.4646V32.6737C50.041 32.6737 51.4104 32.6737 52.6996 32.6737C52.6996 31.5674 52.6925 30.6893 52.6925 29.7002H73.9146V40.8663H71.1192V53.0802H73.1672V50.1725H83.6621C83.6621 48.7135 83.6538 47.9835 83.6538 46.3651H102.338C102.338 47.5084 102.338 48.588 102.338 50.011H111.964C111.964 51.1019 111.961 52.015 111.961 53.1049H117.663C118.703 53.1049 118.936 53.1028 119.779 53.1028V57.0994C120.73 57.0994 121.664 57.0953 122.757 57.0953V60.659H126.985C126.985 61.6882 126.985 62.8007 126.985 63.9286C127.675 63.9286 128.468 63.9307 129.622 63.9307V74.5971C130.777 74.5971 131.596 74.5961 132.591 74.5961V113.242C131.797 113.242 130.895 113.228 129.791 113.228V123.255C128.76 123.255 127.944 123.256 126.714 123.256C126.714 125.324 126.708 128.646 126.708 130.868H122.981V136.878C121.946 136.878 121.115 136.881 119.968 136.881C119.968 137.778 120.002 141.688 120.002 141.688C120.002 141.688 117.72 141.694 116.387 141.694C116.387 142.664 116.403 143.74 116.403 144.721C115.346 144.721 113.268 144.742 112.273 144.742V147.811C111.201 147.811 110.273 147.806 109.184 147.806C109.184 148.664 109.205 150.651 109.205 151.858C107.89 151.858 106.685 151.871 105.279 151.871V154.465H98.5202C98.5202 155.778 98.5264 156.999 98.5264 158.295H66.4207V154.634H59.6342V151.751C58.5598 151.751 55.9742 151.732 55.4385 151.732C55.4385 150.742 55.4416 148.894 55.4416 147.751H53.7997C53.7164 147.751 53.5509 147.751 53.5509 147.751C53.5376 151.144 53.5386 154.742 53.5386 158.269H50.445V178.896H46.6873V192.026C47.5972 192.026 49.5012 192.028 50.6774 192.028C50.6774 192.786 50.6805 194.552 50.6805 195.666C51.4032 195.666 52.2853 195.679 53.3587 195.679V198.676H60.0568V203.273H0V198.732C0.757714 198.732 0.994178 198.734 2.19192 198.734H7.36432C7.36432 197.519 7.37871 195.985 7.37871 195.102H14.3472C14.3472 194.033 14.3472 192.916 14.3472 191.888C15.3126 191.888 16.3613 191.88 17.376 191.88V184.948C18.6827 184.948 19.8579 184.942 21.2633 184.942V171.424H25.1197V150.923H28.057C28.057 145.068 28.0765 139.277 28.0765 133.353H31.0817V112.545C33.1739 112.545 33.5903 112.547 34.9402 112.547V90.9103C36.2705 90.9103 36.5975 90.9268 38.1129 90.9268C38.1129 90.3489 38.0872 89.8441 38.0872 89.146H32.8768V95.8148H29.1293V102.4C27.6437 102.4 26.6125 102.385 25.2482 102.385V106.489H22.1968C22.1968 107.604 22.2122 108.465 22.2122 109.461H19.2143C19.2143 110.769 19.1937 111.975 19.1937 113.295H10.8424V109.338C12.0216 109.338 13.2255 109.332 14.4767 109.332L14.4778 109.333ZM57.3354 120.266V133.428C58.4365 133.428 59.3566 133.436 60.4074 133.436V140.033C61.4601 140.033 63.4444 140.037 64.4786 140.037C64.4786 141.04 64.4632 142.064 64.4632 143.162H67.9845C67.9845 144.312 67.9948 145.612 67.9948 146.898H86.6518C86.6518 145.599 86.6672 144.357 86.6672 143.063C87.8793 143.063 90.0661 143.058 90.9524 143.058C90.9524 141.936 90.9575 140.992 90.9575 139.971H94.6062V133.204H97.6978V126.25C98.839 126.25 99.7375 126.251 100.788 126.251V116.265C102.13 116.265 103.298 116.265 104.658 116.265V95.0447C105.683 95.0447 106.523 95.0385 107.385 95.0385V78.2533H104.391V68.4372H101.831C101.354 68.4372 101.117 68.4352 100.626 68.4352V61.4918H94.4829V57.8942C88.7841 57.8942 83.3104 57.8901 77.8008 57.8901C77.8008 58.91 77.8008 60.7926 77.8008 61.5545C77.3084 61.5545 72.9029 61.5638 70.9567 61.5638C70.9567 62.6238 70.9424 63.6551 70.9424 64.307C69.4948 64.307 68.3618 64.3152 67.0828 64.3152V82.2149H63.9975V99.0217H60.1514V120.266H57.3364H57.3354Z" fill="#4C31FF"/>
<path d="M388.299 158.268V150.132H381.525C381.525 152.503 381.525 156.189 381.525 158.386C380.948 158.386 380.882 158.39 380.314 158.39H364.788V165.519C364.788 166.111 364.789 165.979 364.789 166.685H347.154V158.546H330.273C330.273 152.899 330.268 147.409 330.268 141.744H322.119V83.0066H330.267V74.5775H338.578C338.578 71.823 338.573 69.1157 338.573 66.1875C340.046 66.1875 345.489 66.1484 347.001 66.1484V57.854H355.436V49.4259H371.498V40.9691C373.072 40.9691 373.184 40.9639 374.252 40.9691C381.874 41.004 389.497 40.9876 397.086 40.9876C397.576 40.9876 397.537 40.9886 398.194 40.9886C398.194 43.1776 398.197 46.765 398.197 49.3581H430.904V99.4535C430.684 99.6653 430.319 100.018 429.803 100.517H422.739V140.826H430.96V158.267H388.299V158.268ZM364.528 75.2808V92.14C364.094 92.14 363.951 92.1359 363.453 92.1359H356.438V140.759H380.022V132.359H388.312C388.312 126.783 388.298 121.34 388.317 115.895C388.335 110.492 388.233 105.086 388.385 99.5532H396.627V58.6776H381.387V66.9895H372.956V75.2808H364.527H364.528Z" fill="#4C31FF"/>
<path d="M679.714 130.216C680.162 130.216 681.176 130.204 681.648 130.204C690.534 130.204 708.733 130.202 708.733 130.202C708.733 130.202 708.742 120.511 708.742 115.823H723.057V87.5723H708.796V73.0429H694.66C694.195 73.0429 694.059 73.0532 693.618 73.0532C693.618 63.9332 693.601 53.6256 693.601 44.304C693.601 43.8454 693.606 43.7097 693.606 43.3889C708.274 43.3889 723.764 43.393 738.481 43.393V57.6684C738.891 57.6684 739.085 57.6551 739.533 57.6551H766.663V43.3643H796.334V73.0532C791.888 73.0532 787.201 72.9658 782.558 73.0028C777.872 73.0398 773.186 73.0111 768.632 73.0111C768.087 73.0111 768.632 73.0131 767.557 73.0131V87.4489H753.072V101.084C757.76 101.084 762.905 101.085 767.485 101.085C767.485 101.272 767.482 101.705 767.482 101.816C767.487 111.197 767.487 120.579 767.487 130.093H796.304V146.146H781.983C781.983 150.171 781.953 154.07 782.002 157.969C782.01 158.637 782.001 160.069 781.983 160.593C781.983 160.593 781.377 160.622 780.884 160.611H738.797C738.437 160.611 738.164 160.605 737.777 160.605C737.777 156.33 737.773 150.901 737.773 146.349H709.512C709.512 146.496 709.51 146.672 709.509 146.779C709.503 151.081 709.504 156.672 709.504 160.702C708.667 160.702 707.776 160.704 706.736 160.702C698.099 160.682 689.463 160.691 680.894 160.691C680.442 160.691 680.338 160.703 679.75 160.703V142.775C679.75 138.868 679.712 134.112 679.712 130.216H679.714Z" fill="#4C31FF"/>
<path d="M447.135 146.339V101.316H460.62V73.0643H447.208V43.3497H505.673V87.3901H491.418V144.511H504.993V130.342H518.948C519.253 130.342 519.531 130.343 519.531 130.343C519.538 125.787 519.537 120.514 519.537 115.825H533.85V73.9732C533.85 73.6082 533.85 73.7162 533.85 73.1312C529.573 73.1312 524.227 73.0417 519.676 73.0417V43.3486C522.62 43.3486 541.047 43.4216 549.959 43.4216V131.629C549.223 131.629 549.435 131.634 548.409 131.634H534.857V146.163H520.443V159.439C520.443 159.913 520.435 160.107 520.435 160.691C502.291 160.691 482.647 160.705 464.351 160.656C463.203 160.653 462.072 160.652 460.813 160.652V146.339H447.135Z" fill="#4C31FF"/>
<path d="M241.2 82.1399H235.061V61.7468H222.053V68.3067C221.618 68.3067 221.582 68.3056 220.981 68.3056H216.078V60.6744C217.85 60.6744 218.794 60.6693 220.326 60.6693V53.1316C220.967 53.1316 221.161 53.1368 221.727 53.1368H228.033V47.5321C228.033 47.0345 228.04 46.8885 228.04 46.4577H256.397C256.397 46.7435 256.389 46.872 256.389 47.5475V53.1357H263.16V74.4604H276.031V60.9212H282.937V53.2005C283.595 53.2005 283.636 53.1974 284.161 53.1974H289.752V46.4258H312.013C312.015 48.2025 312.015 51.0156 312.015 53.0627H318.79V75.1431H304.409V68.5689H291.535V74.9179C289.02 74.9179 286.539 74.9436 283.939 74.9436V82.0114H277.814V122.456H283.699V142.981H296.707V137.487C296.707 136.985 296.707 137.099 296.707 136.417H304.206V151.454H298.35V157.194C298.35 157.625 298.35 158.005 298.35 158.335H262.55V144.775H255.644V131.116H242.637V144.529H235.87V151.657C233.706 151.657 231.639 151.662 228.91 151.662V158.317H199.816C199.816 155.755 199.827 153.891 199.827 150.979C199.827 146.425 199.871 140.747 199.871 136.175C202.313 136.175 204.235 136.163 206.675 136.163V130.275H214.221V143.162C218.845 143.162 223.314 143.176 227.979 143.176V130.286H234.886V122.62H241.03V108.686C243.935 108.686 245.927 108.703 248.519 108.703V102.804H241.2C241.2 102.301 241.2 102.481 241.2 101.73V82.1358V82.1399Z" fill="#4C31FF"/>
<path d="M180.796 121.721V144.661C182.173 144.661 183.456 144.676 184.822 144.676C186.188 144.676 187.579 144.68 189.089 144.68V141.349C189.089 140.849 189.089 140.737 189.089 140.225H195.219V150.655H190.817V155.273H185.434V160.605C177.194 160.605 168.284 160.605 160.313 160.604C160.313 160.292 160.309 160.205 160.309 159.66V155.445H155.688V150.828H151.121V115.673C152.77 115.673 153.839 115.677 155.535 115.677V96.7132H160.151V72.2782H165.399V63.8759C159.264 63.8491 152.98 63.8759 146.582 63.8615V57.6646H151.027V52.318C153.293 52.318 153.896 52.3375 155.454 52.3375V47.8516C156.336 47.8516 158.292 47.8711 158.874 47.8701C167.625 47.8454 176.376 47.8536 185.261 47.8536V52.3406H190.69V57.6307H195.285C195.297 64.2923 195.286 70.8244 195.292 77.4912H190.792V97.3527H185.414V121.719C183.621 121.719 182.31 121.722 180.796 121.722V121.721Z" fill="#4C31FF"/>
<path d="M170.247 9.74209H175.323V4.46748C177.037 4.44178 178.639 4.40785 180.241 4.39551C181.871 4.38317 183.503 4.39242 185.261 4.39242V0H195.2V4.38625H200.61C200.61 7.06674 200.612 11.1507 200.612 14.1674H205.01V19.5274H200.735V29.5625H195.324V34.0536H175.485V29.5666H170.249V9.74209H170.247Z" fill="#4C31FF"/>
</svg>
